<svg width="21" height="21" viewBox="0 0 21 21" fill="none" xmlns="http://www.w3.org/2000/svg">
<path d="M16.7339 4.96129H16.3934L13.5168 2.08469C13.2871 1.85491 12.9126 1.85491 12.6743 2.08469C12.4445 2.31448 12.4445 2.68895 12.6743 2.92725L14.7083 4.96129H6.43599L8.47003 2.92725C8.69982 2.69746 8.69982 2.32299 8.47003 2.08469C8.24025 1.85491 7.86578 1.85491 7.62748 2.08469L4.7594 4.96129H4.41897C3.65301 4.96129 2.06152 4.96129 2.06152 7.14001C2.06152 7.96554 2.23174 8.51022 2.58918 8.86767C2.79344 9.08044 3.04025 9.19108 3.30408 9.25065C3.55088 9.31022 3.81471 9.31874 4.07003 9.31874H17.0743C17.3381 9.31874 17.5849 9.30171 17.8232 9.25065C18.5381 9.08044 19.0828 8.5698 19.0828 7.14001C19.0828 4.96129 17.4913 4.96129 16.7339 4.96129Z" fill="#292D32"/>
<path d="M16.5721 10.4252H4.50403C3.97637 10.4252 3.57637 10.8933 3.66148 11.4124L4.37637 15.7869C4.61467 17.2507 5.25297 18.9358 8.08701 18.9358H12.8615C15.7296 18.9358 16.2402 17.4975 16.5466 15.889L17.4062 11.4379C17.5083 10.9103 17.1083 10.4252 16.5721 10.4252ZM10.5721 16.8081C8.58063 16.8081 6.95509 15.1826 6.95509 13.1911C6.95509 12.8422 7.24445 12.5528 7.59339 12.5528C7.94233 12.5528 8.23169 12.8422 8.23169 13.1911C8.23169 14.4847 9.2785 15.5316 10.5721 15.5316C11.8657 15.5316 12.9125 14.4847 12.9125 13.1911C12.9125 12.8422 13.2019 12.5528 13.5508 12.5528C13.8998 12.5528 14.1891 12.8422 14.1891 13.1911C14.1891 15.1826 12.5636 16.8081 10.5721 16.8081Z" fill="#292D32"/>
</svg>
