<svg width="90" height="18" viewBox="0 0 90 18" fill="none" xmlns="http://www.w3.org/2000/svg">
<g clip-path="url(#clip0_134_628)">
<path d="M8.99999 12.9524L12.1125 14.8349C12.6825 15.1799 13.38 14.6699 13.23 14.0249L12.405 10.4849L15.1575 8.09995C15.66 7.66495 15.39 6.83995 14.73 6.78745L11.1075 6.47995L9.68999 3.13495C9.43499 2.52745 8.56499 2.52745 8.30999 3.13495L6.89249 6.47245L3.26999 6.77995C2.60999 6.83245 2.33999 7.65745 2.84249 8.09245L5.59499 10.4774L4.76999 14.0174C4.61999 14.6624 5.31749 15.1724 5.88749 14.8274L8.99999 12.9524Z" fill="#A7A7A7"/>
</g>
<g clip-path="url(#clip1_134_628)">
<path d="M45 12.9524L48.1125 14.8349C48.6825 15.1799 49.38 14.6699 49.23 14.0249L48.405 10.4849L51.1575 8.09995C51.66 7.66495 51.39 6.83995 50.73 6.78745L47.1075 6.47995L45.69 3.13495C45.435 2.52745 44.565 2.52745 44.31 3.13495L42.8925 6.47245L39.27 6.77995C38.61 6.83245 38.34 7.65745 38.8425 8.09245L41.595 10.4774L40.77 14.0174C40.62 14.6624 41.3175 15.1724 41.8875 14.8274L45 12.9524Z" fill="#A7A7A7"/>
</g>
<g clip-path="url(#clip2_134_628)">
<path d="M27 12.9524L30.1125 14.8349C30.6825 15.1799 31.38 14.6699 31.23 14.0249L30.405 10.4849L33.1575 8.09995C33.66 7.66495 33.39 6.83995 32.73 6.78745L29.1075 6.47995L27.69 3.13495C27.435 2.52745 26.565 2.52745 26.31 3.13495L24.8925 6.47245L21.27 6.77995C20.61 6.83245 20.34 7.65745 20.8425 8.09245L23.595 10.4774L22.77 14.0174C22.62 14.6624 23.3175 15.1724 23.8875 14.8274L27 12.9524Z" fill="#A7A7A7"/>
</g>
<g clip-path="url(#clip3_134_628)">
<path d="M63 12.9524L66.1125 14.8349C66.6825 15.1799 67.38 14.6699 67.23 14.0249L66.405 10.4849L69.1575 8.09995C69.66 7.66495 69.39 6.83995 68.73 6.78745L65.1075 6.47995L63.69 3.13495C63.435 2.52745 62.565 2.52745 62.31 3.13495L60.8925 6.47245L57.27 6.77995C56.61 6.83245 56.34 7.65745 56.8425 8.09245L59.595 10.4774L58.77 14.0174C58.62 14.6624 59.3175 15.1724 59.8875 14.8274L63 12.9524Z" fill="#A7A7A7"/>
</g>
<g clip-path="url(#clip4_134_628)">
<path d="M81 12.9524L84.1125 14.8349C84.6825 15.1799 85.38 14.6699 85.23 14.0249L84.405 10.4849L87.1575 8.09995C87.66 7.66495 87.39 6.83995 86.73 6.78745L83.1075 6.47995L81.69 3.13495C81.435 2.52745 80.565 2.52745 80.31 3.13495L78.8925 6.47245L75.27 6.77995C74.61 6.83245 74.34 7.65745 74.8425 8.09245L77.595 10.4774L76.77 14.0174C76.62 14.6624 77.3175 15.1724 77.8875 14.8274L81 12.9524Z" fill="#A7A7A7"/>
</g>
<defs>
<clipPath id="clip0_134_628">
<rect width="18" height="18" fill="white"/>
</clipPath>
<clipPath id="clip1_134_628">
<rect width="18" height="18" fill="white" transform="translate(36)"/>
</clipPath>
<clipPath id="clip2_134_628">
<rect width="18" height="18" fill="white" transform="translate(18)"/>
</clipPath>
<clipPath id="clip3_134_628">
<rect width="18" height="18" fill="white" transform="translate(54)"/>
</clipPath>
<clipPath id="clip4_134_628">
<rect width="18" height="18" fill="white" transform="translate(72)"/>
</clipPath>
</defs>
</svg>
